<?xml version="1.0" encoding="utf-8"?>
<!-- Generator: Adobe Illustrator 26.5.0, SVG Export Plug-In . SVG Version: 6.00 Build 0)  -->
<svg version="1.1" id="レイヤー_1" xmlns="http://www.w3.org/2000/svg" xmlns:xlink="http://www.w3.org/1999/xlink" x="0px"
	 y="0px" viewBox="0 0 300 300" style="enable-background:new 0 0 300 300;" xml:space="preserve">
<style type="text/css">
	.st0{fill:#FCAC2B;}
	.st1{fill:#45CA00;}
	.st2{fill:#F4E067;}
</style>
<g>
	<ellipse class="st0" cx="152.33" cy="158.26" rx="107.87" ry="100.96"/>
	<path d="M152.33,58.11c59.03,0,107.06,44.93,107.06,100.15s-48.03,100.15-107.06,100.15S45.27,213.48,45.27,158.26
		S93.3,58.11,152.33,58.11 M152.33,56.5c-60.02,0-108.67,45.56-108.67,101.76s48.65,101.76,108.67,101.76S261,214.46,261,158.26
		S212.35,56.5,152.33,56.5L152.33,56.5z"/>
</g>
<g>
	<path class="st1" d="M147.43,102.66c-14.01,0-25.4-8.07-25.4-17.98s11.4-17.98,25.4-17.98s25.4,8.07,25.4,17.98
		S161.44,102.66,147.43,102.66z"/>
	<path d="M147.43,67.5c13.56,0,24.6,7.7,24.6,17.18s-11.03,17.18-24.6,17.18s-24.6-7.7-24.6-17.18S133.87,67.5,147.43,67.5
		 M147.43,65.89c-14.47,0-26.21,8.41-26.21,18.79s11.73,18.79,26.21,18.79s26.21-8.41,26.21-18.79S161.9,65.89,147.43,65.89
		L147.43,65.89z"/>
</g>
<g>
	<ellipse class="st2" cx="147.43" cy="75.29" rx="6.55" ry="3.89"/>
	<path d="M147.43,72.2c3.38,0,5.74,1.63,5.74,3.09s-2.36,3.09-5.74,3.09s-5.74-1.63-5.74-3.09S144.05,72.2,147.43,72.2
		 M147.43,70.59c-4.06,0-7.35,2.1-7.35,4.7s3.29,4.7,7.35,4.7c4.06,0,7.35-2.1,7.35-4.7S151.49,70.59,147.43,70.59L147.43,70.59z"/>
</g>
</svg>
